<?xml version="1.0" encoding="UTF-8"?><svg id="Layer_1" xmlns="http://www.w3.org/2000/svg" viewBox="0 0 24 24"><defs><style>.cls-1{fill:#da9300;}.cls-2{fill:#fdca01;}</style></defs><path class="cls-2" d="M13.33,0c.65.25,1.36.29,2.03.48,3.77,1.06,7,4.24,8.11,8,.21.73.3,1.47.53,2.19v2.77c-.41,1.81-.87,3.42-1.88,5.01-3.83,6.05-12.38,7.45-17.87,2.73C-2.76,15.15-.76,4.08,7.75.77L10.76,0h2.56ZM4.82,19.27c5.52,5.55,15.34,3.16,17.18-4.57C24.01,6.3,15.82-.96,7.81,2.65,1.36,5.56-.17,14.25,4.82,19.27Z"/><path class="cls-1" d="M4.82,19.27C-.17,14.25,1.36,5.56,7.81,2.65c8.01-3.61,16.2,3.65,14.2,12.05-1.84,7.73-11.67,10.12-17.18,4.57ZM9.7,7.36h-2.56c.07.2.06,1.23.11,1.28.11.11,1.33-.28,1.55.42.2.62.03,2.67.04,3.48.01.56.29,1.92.06,2.4-.2.41-1.24.12-1.33.21-.05.05-.09,1.28-.21,1.49h2.56v1.39s1.17,0,1.17,0v-1.39s.96,0,.96,0c.05.29-.11,1.18.1,1.34.14.1.92-.17,1.18-.06.05-.29-.11-1.2.1-1.34,2.14-.13,3.75-.88,3.53-3.3-.1-1.15-.76-1.47-1.71-1.92,1.4-.84,1.26-2.93-.18-3.67-.47-.24-1.88-.37-1.95-.45-.08-.1.04-1.14-.01-1.38h-1.18s0,1.39,0,1.39h-1.07s0-1.28,0-1.28h-1.28s.11,1.39.11,1.39Z"/><path class="cls-2" d="M9.7,7.36l-.11-1.39h1.28s0,1.28,0,1.28h1.07s0-1.39,0-1.39h1.18c.05.24-.07,1.28.01,1.38.07.08,1.48.21,1.95.45,1.43.74,1.57,2.83.18,3.67.95.44,1.61.76,1.71,1.92.22,2.42-1.39,3.18-3.53,3.3-.21.14-.05,1.05-.1,1.34-.26-.11-1.04.17-1.18.06-.21-.16-.05-1.05-.1-1.34h-.96s0,1.39,0,1.39h-1.18s0-1.39,0-1.39h-2.56c.12-.22.16-1.44.21-1.49.09-.1,1.13.2,1.33-.21.23-.48-.05-1.84-.06-2.4-.02-.81.16-2.86-.04-3.48-.23-.7-1.45-.31-1.55-.42-.04-.05-.04-1.08-.11-1.28h2.56ZM10.98,11.2c.98.02,2.89.03,2.89-1.33s-1.99-1.25-2.89-1.12v2.45ZM11.09,12.48v2.67h1.55c.13,0,1.07-.29,1.23-.37.65-.33.81-.94.54-1.61-.32-.78-2.59-.9-3.32-.68Z"/><path class="cls-1" d="M11.09,12.48c.72-.22,3-.1,3.32.68.27.67.11,1.29-.54,1.61-.16.08-1.1.37-1.23.37h-1.55v-2.67Z"/><path class="cls-1" d="M10.98,11.2v-2.45c.9-.13,2.9-.19,2.89,1.12s-1.91,1.35-2.89,1.33Z"/></svg>